<svg fill="#0078D4" role="img" viewBox="0 0 24 24" xmlns="http://www.w3.org/2000/svg"><title>Microsoft Azure</title><path d="M22.379 23.498a1.147 1.147 0 0 0 1.014-.6 1.124 1.124 0 0 0-.407-1.529l-.003-.002L13.015 15.2a.24.24 0 0 1-.105-.144l-.003-.016 4.328-9.968a.24.24 0 0 0-.019-.222L13.17.502a1.066 1.066 0 0 0-.442-.411 1.109 1.109 0 0 0-.584-.087 1.137 1.137 0 0 0-.993.803L5.108 19.07a1.12 1.12 0 0 0 .468 1.262l15.676 9.6.002.001a1.152 1.152 0 0 0 .605.164H22.38zM6.293 19.465 11.48 2.677l3.574 6.466-4.088 9.42a1.046 1.046 0 0 0 .453 1.368l5.19 3.08H3.478a.25.25 0 0 1-.129-.465z"/></svg>