<svg fill="#0066FF" role="img" viewBox="0 0 24 24" xmlns="http://www.w3.org/2000/svg"><title>Power Automate</title><path d="M3.604 2.014a.972.972 0 0 0-.673.282L.283 4.944a.972.972 0 0 0 0 1.374l7.03 7.03V5.986a.972.972 0 0 0-.284-.688L4.38 2.65l-.103-.093a.972.972 0 0 0-.673-.282v-.261zm6.88 0a.972.972 0 0 0-.674.282L7.162 4.944a.972.972 0 0 0-.285.688v7.716l6.682 6.682V5.986a.972.972 0 0 0-.285-.688l-2.647-2.648-.103-.093a.972.972 0 0 0-.673-.282v-.261zm6.88 0a.972.972 0 0 0-.674.282L14.042 4.944a.972.972 0 0 0-.285.688v14.398l7.314 1.825a.972.972 0 0 0 1.18-.687l1.686-6.747a.972.972 0 0 0-.25-.912L17.467 2.296l-.103-.093a.972.972 0 0 0-.673-.282v.093z"/></svg>